/* XPM */
static char * ampPlus [] = {
/* width height ncolors cpp [x_hot y_hot] */
"16 16 3 1 0 0",
/* colors */
" 	s none	m none	c none",
".	s iconColor3	m black	c red",
"X	s iconColor2	m white	c white",
/* pixels */
"                ",
"       ..       ",
"      .XX.      ",
"     .XXXX.     ",
"    .XXXXXX.    ",
"   .XXXXXXXX.   ",
"   ..........   ",
"                ",
"                ",
"   ..........   ",
"   .XXXXXXXX.   ",
"    .XXXXXX.    ",
"     .XXXX.     ",
"      .XX.      ",
"       ..       ",
"                "};
