/* XPM */
static char * arrow1 [] = {
/* width height ncolors cpp [x_hot y_hot] */
"16 16 2 1 0 0",
/* colors */
" 	s iconColor1	m black	c black",
".	s none	m none	c none",
/* pixels */
" ...............",
"  ..............",
"   .............",
"    ............",
"     ...........",
"      ..........",
"       .........",
"        ........",
"      ..........",
"      ..........",
"  ..  ..........",
".....  .........",
"...... .........",
"......  ........",
".......  .......",
"........ ......."};
