/* XPM */
static char * BCFiltParams [] = {
/* width height ncolors cpp [x_hot y_hot] */
"128 64 4 1 0 0",
/* colors */
" 	s foreground	m white	c white",
".	s iconColor3	m black	c red",
"X	s iconColor1	m black	c black",
"o	s iconColor5	m black	c blue",
/* pixels */
"                       .                                                                             .                          ",
"                       .                                                                             .                          ",
"                       .                                                                             .                          ",
"   X                   .                                                                             .                          ",
"  XXX                  .                                                                             .                          ",
" XXXXX                 .                                                                             .                          ",
"   X                .......                                                                       .......                       ",
"   X                 .....                                                                         .....                        ",
"   X                  ...                                                                           ...                         ",
"   X                   .                                                                             .                          ",
"   XX X X X X X X X X X X X X X X X X                                                 X X X X X X X X X X X X X X X             ",
"   X                                                                                                                            ",
"   X     oooo                   oooo                                                                          oooo              ",
"   X  ooo    ooo             ooo    oooo                                                                   ooo    oooo          ",
"   Xooo        ooo           o          o                                                   oooo           o                    ",
"   X              ooo    oooo           oo                                                 oo   ooo    oooo                     ",
"   X                 oooo               .o                                                oo       oooo                         ",
"   X                                    .o                                                o.                                    ",
"   XX X X X X X X X X X X X X X X X X   . o                                           X Xoo.X X X X X X X X X X X X             ",
"   X                   .                . o                                              o .         .                          ",
"   X                  ...               . o                                             oo .        ...                         ",
"   X                 .....              . o                                             o  .       .....                        ",
"   X                .......             .  o                                            o  .      .......                       ",
"   X       ....        .                .  o                                            o  .         .                          ",
"   X      .    .       .                .  o                                            o  .         .                          ",
"   X     .      .      .                .  o                                           o   .         .                          ",
"   X    .        .     .                .   o                                          o   .         .                          ",
"   X    .        .     .                .   o                                          o   .         .                          ",
"   X    .        .     .                .   o                                          o   .         .                          ",
"   X    .        .     .                .   o                                         oo   .         .                          ",
"   X    .        .                      .    o                                        o    .                                    ",
"   X     .      .                       .    o                                        o    .                                    ",
"   X      .    .                        .    o                                        o    .                                    ",
"   X       ....                         .    o                                       oo    .                                    ",
"   X                                    .     o                                      o     .                                    ",
"   X                                    .     o                                      o     .                                    ",
"   X                                    .     o                                     oo     .                                    ",
"   X                                    .     o                                     o      .                                    ",
"   X                                    .     o                                     o      .                                    ",
"   X                                    .      o                                    o      .                                    ",
"   X                                    .      o                                    o      .                                    ",
"   X                       ........     .      o      ........      ........       oo      .   .......                          ",
"   X                       .            .      o      .             .              o       .   .                                ",
"   X                       .            .       o     .             .              o       .   .                                ",
"   X                       .            .       o     .             .              o       .   .                                ",
"   X                       .            .       o     .             .              o       .   .                                ",
"   X                       .....        .       o     .....         .....         oo       .   .....                            ",
"   X                       .            .        o    .             .             o        .   .       .                        ",
"   X                       .      .     .        o    .    ...      .             o        .   .      .                         ",
"   X                       .     ..     .        o    .   .   .     .   .....     o        .   .     .                          ",
"   X                       .    . .     .        o    .       .     .       .     o        .   .    .  .                        ",
"   X                       .   .  .     .         o   .      .      .    ...      o        .   .    ......                      ",
"   X                       .      .     .         o   .     .       .     ..     oo        .   .       .                        ",
"   X                              .     .         o        .        .       .    o         .   .       .                        ",
"   X                            .....   .         o       .....         .   .    o         .           .                        ",
"   X                                    .          o   .                 ...    oo         .                                    ",
"   X                                 .  .  .        o  .                        o.         .                                    ",
"   X                                  . . .          oo.                       oo.         .                         X          ",
"   X                                   ...             .oooooooooooooooooooooooo .         .                         XX         ",
" XXXXXXXXXXXXXXXXXXXXXXXXXXXXXXXXXXXXXXX.XXXXXXXXXXXXXX.XXXXXXXXXXXXXXXXXXXXXXXXX.XXXXXXXXX.XXXXXXXXXXXXXXXXXXXXXXXXXXXX        ",
"   X                                   . .             .                         .         .                         XX         ",
"   X                                  .   .            .                         .         .                         X          ",
"                                     .     .           .                         .         .                                    ",
"                                                                                                                                "};
