/* XPM */
static char * bobine [] = {
/* width height ncolors cpp [x_hot y_hot] */
"16 16 3 1 0 0",
/* colors */
" 	s iconColor3	m black	c red",
".	s none	m none	c none",
"X	s iconColor5	m black	c blue",
/* pixels */
" ...............",
" .XXXXXXXXXXXXX.",
". ..X.......X...",
". ..X.......X...",
".. .X.......X...",
"...  .......X...",
"....X    ...X...",
"...   ...    ...",
"....X.    ..X...",
"...   ....   ...",
"....X.    ..X...",
"...   ....   ...",
"....X.    ..X...",
"....X.....   ...",
"..XXXXXXXXXXXXX.",
"................"};
