/* XPM */
static char * BPFiltParams [] = {
/* width height ncolors cpp [x_hot y_hot] */
"128 64 4 1 0 0",
/* colors */
" 	s foreground	m white	c white",
".	s iconColor3	m black	c red",
"X	s iconColor1	m black	c black",
"o	s iconColor5	m black	c blue",
/* pixels */
"                                                            .                                                                   ",
"                                                            .                                                                   ",
"     X                                                      .                                                                   ",
"    XXX                                                   . . .                                                                 ",
"   XXXXX                                                   ...                                                                  ",
"     X                                                      .                                                                   ",
"     X                                       X XX XX XX XX XX XX X XX XX XX                                                     ",
"     X                                                                                                                          ",
"     X                                      ooooo        oooooo         ooo                                                     ",
"     X                                     oo   oo      oo    oo       oo oo                                                    ",
"     X                                    oo     oo    oo      oo    oo    oo                                                   ",
"     X                                   oo       oo ooo        o   oo      oo                                                  ",
"     X                                   o         ooo          ooooo        o                                                  ",
"     X                                  oo.                       oo         .                                                  ",
"     X                                  o .  XX XX XX XX XX XX XX XX XX X X  .o                                                 ",
"     X                                  o .                                  .o                                                 ",
"     X                                 oo .                 .                .oo                                                ",
"     X                                 o  .                ...               . o                                                ",
"     X                                 o  .        ....   . . .              . oo                                               ",
"     X                                 o  .       .    .    .                .  o                                               ",
"     X                                o   .      .      .   .                .  o                                               ",
"     X                                o   .      .      .   .                .  oo                                              ",
"     X                                o   .      .      .   .                .   o                                              ",
"     X                                o   .      .      .   .                .   o                                              ",
"     X                               oo   .      .      .   .                .   oo                                             ",
"     X                               o    .       .    .    .                .    o                                             ",
"     X                               o    .        ....     .                .    o                                             ",
"     X                               o    .                                  .    o                                             ",
"     X                               o    .                                  .    o                                             ",
"     X                              oo    .                                  .    oo                                            ",
"     X                              o     .                                  .     o                                            ",
"     X                              o     .                                  .     o                                            ",
"     X                              o     .                                  .     o                                            ",
"     X                             oo     .                                  .     o                                            ",
"     X                             o      .                                  .     o                                            ",
"     X                             o      .                                  .      o                                           ",
"     X                             o      .                                  .      o                                           ",
"     X                            oo      .                                  .      o                                           ",
"     X                            o       .                                  .      o                                           ",
"     X                            o       .                                  .      oo                                          ",
"     X                            o       .                                  .       o                                          ",
"     X                            o       .                                  .       o                                          ",
"     X                           oo       .                                  .       o                                          ",
"     X         .......           o        .                                  .       o             .......                      ",
"     X         .                 o        .  .......               .......   .       oo            .                            ",
"     X         .                o         .  .                     .         .        o            .                            ",
"     X         .                o         .  .                     .         .        o            .                            ",
"     X         .....            o         .  .                     .         .        o            .....                        ",
"     X         .                o         .  .....                 .....     .        oo           .                            ",
"     X         .                o         .  .                     .         .         o           .     .                      ",
"     X         .    .          oo         .  .      ..             .   ..... .         o       .   .    .                       ",
"     X         .   ..    .     o          .  .     .  .            .      .  .         oo      .   .   .                        ",
"     X         .  ...    .     o          .  .        .            .     .   .          oo     .   .  .  .                      ",
"     X         .    .    .    oo          .  .       .             .    ...  .           o     .   .  ......                    ",
"     X              .    .    o           .  .      .              .       . .            o    .         .                      ",
"     X             ...   .   o            .        .                      .. .             oo  .         .                      ",
"     X                   .  oo            .       ......               ....  .              oo .                                ",
"     X                   .ooo             .                                  .               oo.                     XX         ",
"     Xooooooooooooooooooo.                .                                  .                 .oooooooooooooooooooo XXX        ",
"  XXXXXXXXXXXXXXXXXXXXXXX.XXXXXXXXXXXXXXXX.XXXXXXXXXXXXXXXXXXXXXXXXXXXXXXXXXX.XXXXXXXXXXXXXXXXX.XXXXXXXXXXXXXXXXXXXXXXXXX       ",
"     X                   .                .                                  .                 .                     XXX        ",
"     X                   .                .                                  .                 .                     XX         ",
"     X                                                                       .                                                  ",
"                                                                                                                                "};
