/* XPM */
static char * charger [] = {
/* width height ncolors cpp [x_hot y_hot] */
"16 16 3 1 0 0",
/* colors */
" 	s none	m none	c none",
".	s iconColor1	m black	c black",
"X	s iconColor6	m white	c yellow",
/* pixels */
"                ",
"                ",
"        ....    ",
"       .    . . ",
"  ...        .. ",
" .XX.       ... ",
" .XXX......     ",
" .XXXXXXXXX.    ",
" .XXXXXXXXX.    ",
" .XXXX..........",
" .XXX.XXXXXXXXX.",
" .XX.XXXXXXXXX. ",
" .X.XXXXXXXXX.  ",
" ..XXXXXXXXX.   ",
"  ..........    ",
"                "};
