/* XPM */
static char * constant [] = {
/* width height ncolors cpp [x_hot y_hot] */
"32 32 4 1 0 0",
/* colors */
" 	s iconGray2	m white	c #c8c8c8c8c8c8",
".	s iconColor5	m black	c blue",
"X	s iconGray1	m white	c #e1e1e1e1e1e1",
"o	s iconColor4	m white	c green",
/* pixels */
"             .......            ",
"          .............         ",
"        .................       ",
"       ...................      ",
"      .....................     ",
"     .........XXXXXX........    ",
"    .......XXXXXXXXXXXX......   ",
"   .......XXXXXXXXXXXXXX......  ",
"   ......XXXXXXXXXXXXXXXX.....  ",
"  ......XXXXXX......XXXXXX..... ",
"  .....XXXXX..oooooo.XXXXXX.... ",
"  .....XXXX..ooXXXXo..XXXXX.... ",
" ......XXXX.ooXXXXXXX.XXXXX.....",
" .....XXXX.ooXXXXXXXXXXXXXXX....",
" .....XXXX.oXXXXXXXXXXXXXXXX....",
" .....XXXX.oXXXXXXXXXXXXXXXX....",
" .....XXXX.oXXXXXXXXXXXXXXXX....",
" .....XXXX.ooXXXXXXXXXXXXXXX....",
" .....XXXXX.ooXXXXXoo.XXXXXX....",
"  .....XXXX..oooXooo..XXXXX.... ",
"  .....XXXXX..ooooo..XXXXXX.... ",
"  .....XXXXXXX.....XXXXXXXX.... ",
"   .....XXXXXXXXXXXXXXXXXX....  ",
"   ......XXXXXXXXXXXXXXXX.....  ",
"    ......XXXXXXXXXXXXXX.....   ",
"     ......XXXXXXXXXXXX.....    ",
"      ........XXXXXX.......     ",
"       ...................      ",
"        .................       ",
"          .............         ",
"             .......            ",
"                                "};
