/* XPM */
static char * doExtract [] = {
/* width height ncolors cpp [x_hot y_hot] */
"16 16 5 1 0 0",
/* colors */
" 	s none	m none	c none",
".	s iconGray8	m black	c #323232323232",
"X	s iconGray3	m white	c #afafafafafaf",
"o	s iconColor1	m black	c black",
"O	s iconColor2	m white	c white",
/* pixels */
"                ",
"                ",
"       ..       ",
"      ....      ",
"     ..  ..     ",
"  ............  ",
"  .XXXooooOOX.  ",
"  .XXXXooOoOX.  ",
"  .XXXXOOOOOX.  ",
"  .XXXXOoooOX.  ",
"  .XXXXOOOOOX.  ",
"  .XXXXooOooX.  ",
"  .XXXXOOOOOX.  ",
"  .XXXXXXXXXX.  ",
"  ............  ",
"                "};
