/* XPM */
static char * mul1 [] = {
/* width height ncolors cpp [x_hot y_hot] */
"32 32 3 1 0 0",
/* colors */
" 	s iconGray2	m white	c #c8c8c8c8c8c8",
".	s iconColor5	m black	c blue",
"X	s iconGray1	m white	c #e1e1e1e1e1e1",
/* pixels */
"                                ",
"                                ",
"                                ",
"                                ",
"                                ",
"            .......             ",
"          ..XXXXXXX..           ",
"         .XXXXXXXXXXX.          ",
"       ..XXXXXXXXXXXXX..        ",
"       .XXXXXXXXXXXXXXX.        ",
"      .XXXXXXXXXXXXXXXXX.       ",
"     .XXXXXXXX...XXXXXXXX.      ",
"     .XXXXXXXX...XXXXXXXX.      ",
"    .XXXXXXXXX...XXXXXXXXX.     ",
"    .XXXXXXXXX...XXXXXXXXX.     ",
"    .XXXXXXXXX...XXXXXXXXX.     ",
"    .XXXXXXXXX...XXXXXXXXX.     ",
"    .XXXXXXXXX...XXXXXXXXX.     ",
"    .XXXXX...........XXXXX.     ",
"    .XXXXXXX.......XXXXXXX.     ",
"     .XXXXXXXX...XXXXXXXX.      ",
"     .XXXXXXXXX.XXXXXXXXX.      ",
"      .XXXXXXXXXXXXXXXXX.       ",
"       .XXXXXXXXXXXXXXX.        ",
"       ..XXXXXXXXXXXXX..        ",
"         .XXXXXXXXXXX.          ",
"          ..XXXXXXX..           ",
"            .......             ",
"                                ",
"                                ",
"                                ",
"                                "};
