/* XPM */
static char *ilvdoc[] = {
/* width height num_colors chars_per_pixel */
"    16    16        5            1",
/* colors */
". c #000000",
"# c #848484",
"a c none",
"b c #c6c6c6",
"c c #f00000",
/* pixels */
"a########.aaaaaa",
"a#ccccccb#.aaaaa",
"a#ccccccbcb#.aaa",
"a#ccccccbccb#.aa",
"a#ccccccb......a",
"a#cccccccccccb#.",
"a#cccccccccccb#.",
"a#cccccccccccb#.",
"a#cccccccccccb#.",
"a#cccccccccccb#.",
"a#cccccccccccb#.",
"a#cccccccccccb#.",
"a#cccccccccccb#.",
"a#bbbbbbbbbbbb#.",
"a##############.",
"................"
};
