/* XPM */
static char * fillWin [] = {
/* width height ncolors cpp [x_hot y_hot] */
"16 16 5 1 0 0",
/* colors */
" 	s none	m none	c none",
".	s iconColor5	m black	c blue",
"X	s iconColor3	m black	c red",
"o	s iconGray6	m black	c #646464646464",
"O	s iconColor2	m white	c white",
/* pixels */
"       ..       ",
"      .XX.      ",
"     ......     ",
"   o o o o oo   ",
"                ",
"  .o ...... o.  ",
" ..  .OOOO.  .. ",
".X.o .OOOO. o.X.",
".X.  .OOOO.  .X.",
" ..o .OOOO. o.. ",
"  .  ......  .  ",
"   o        o   ",
"   o o o o oo   ",
"     ......     ",
"      .XX.      ",
"       ..       "};
