/* XPM */
static char * HPFiltParams [] = {
/* width height ncolors cpp [x_hot y_hot] */
"128 64 4 1 0 0",
/* colors */
" 	s foreground	m white	c white",
".	s iconColor3	m black	c red",
"X	s iconColor1	m black	c black",
"o	s iconColor5	m black	c blue",
/* pixels */
"                                                                                                    .                           ",
"                                                                                                    .                           ",
"                                                                                                    .                           ",
"   X                                                                                                .                           ",
"  XXX                                                                                               .                           ",
" XXXXX                                                                                              .                           ",
"   X                                                                                             .......                        ",
"   X                                                                                              .....                         ",
"   X                                                                                               ...                          ",
"   X                                                                                                .                           ",
"   X                                                                             X X X X X X X X X X X X X X X X X              ",
"   X                                                                                                                            ",
"   X                                                                                  oooo                   oooo               ",
"   X                                                                               ooo    ooo             ooo    oooo           ",
"   X                                                                        oooooooo        ooo           o                     ",
"   X                                                                     ooo                   ooo    oooo                      ",
"   X                                                                    o        .                oooo                          ",
"   X                                                                    o        .                                              ",
"   X                                                                   o         . X X X X X X X X X X X X X X X X              ",
"   X                                                                  o          .                  .                           ",
"   X                                                                  o          .                 ...                          ",
"   X                                                                 o           .                .....                         ",
"   X                                                                 o           .               .......                        ",
"   X                                                                 o           .                  .           ...             ",
"   X                                                                o            .                  .          .   .            ",
"   X                                                                o            .                  .         .     .           ",
"   X                                                               o             .                  .        .       .          ",
"   X                                                               o             .                  .        .       .          ",
"   X                                                              o              .                  .        .       .          ",
"   X                                                              o              .                  .        .       .          ",
"   X                                                             o               .                           .       .          ",
"   X                                                             o               .                           .       .          ",
"   X                                                            o                .                            .     .           ",
"   X                                                            o                .                             .   .            ",
"   X                                                           o                 .                              ...             ",
"   X                                                          oo                 .                                              ",
"   X                                                          o                  .                                              ",
"   X                                                         o                   .                                              ",
"   X                                                         o                   .                                              ",
"   X                                                        o                    .                                              ",
"   X                                                        o                    .                                              ",
"   X                        ........    .                  o                     .      ........                                ",
"   X                        .           .                  o                     .      .                                       ",
"   X                        .           .                 o                      .      .                                       ",
"   X                        .           .                o                       .      .                                       ",
"   X                        .           .               o                        .      .                                       ",
"   X                        .....       .              o                         .      .....                                   ",
"   X                        .           .              o                         .      .                                       ",
"   X                        .      .    .             o                          .      .       ...                             ",
"   X                        .     ..    .            o                           .      .      .   .                            ",
"   X                        .    . .    .           o                            .      .      .   .                            ",
"   X                        .      .    .          o                             .      .          .                            ",
"   X                        .      .    .         o                              .      .         .                             ",
"   X                               .    .        o                               .               .                              ",
"   X                             .....  .       o                                .              .                               ",
"   X                                    .      o                                 .             .....                            ",
"   X                                 .  .  .  o                               .  .  .                                           ",
"   X                                  . . . oo                                 . . .                                 X          ",
"   Xooooooooooooooooooooooooooooooooooo...oo                                    ...                                  XX         ",
" XXXXXXXXXXXXXXXXXXXXXXXXXXXXXXXXXXXXXXX.XXXXXXXXXXXXXXXXXXXXXXXXXXXXXXXXXXXXXXXX.XXXXXXXXXXXXXXXXXXXXXXXXXXXXXXXXXXXXXX        ",
"   X                                   . .                                      . .                                  XX         ",
"   X                                  .   .                                    .   .                                 X          ",
"                                     .     .                                  .     .                                           ",
"                                                                                                                                "};
