/* XPM */
static char * LPFiltParams [] = {
/* width height ncolors cpp [x_hot y_hot] */
"128 64 4 1 0 0",
/* colors */
" 	s foreground	m white	c white",
".	s iconColor3	m black	c red",
"X	s iconColor1	m black	c black",
"o	s iconColor5	m black	c blue",
/* pixels */
"                       .                                                                                                        ",
"                       .                                                                                                        ",
"                       .                                                                                                        ",
"   X                   .                                                                                                        ",
"  XXX                  .                                                                                                        ",
" XXXXX                 .                                                                                                        ",
"   X                .......                                                                                                     ",
"   X                 .....                                                                                                      ",
"   X                  ...                                                                                                       ",
"   X                   .                                                                                                        ",
"   XX X X X X X X X X X X X X X X X X                                                                                           ",
"   X                                                                                                                            ",
"   X     oooo                   oooo                                                                                            ",
"   X  ooo    ooo             ooo    oooo                                                                                        ",
"   Xooo        ooo           o          o                                                                                       ",
"   X              ooo    oooo           .oo                                                                                     ",
"   X                 oooo               .  oo                                                                                   ",
"   X                                    .    oo                                                                                 ",
"   XX X X X X X X X X X X X X X X X X   .      o                                                                                ",
"   X                   .                .       o                                                                               ",
"   X                  ...               .        o                                                                              ",
"   X                 .....              .         o                                                                             ",
"   X                .......             .          o                                                                            ",
"   X       ....        .                .           o                                                                           ",
"   X      .    .       .                .           o                                                                           ",
"   X     .      .      .                .            o                                                                          ",
"   X    .        .     .                .             o                                                                         ",
"   X    .        .     .                .              o                                                                        ",
"   X    .        .     .                .              o                                                                        ",
"   X    .        .     .                .               o                                                                       ",
"   X    .        .                      .                o                                                                      ",
"   X     .      .                       .                 o                                                                     ",
"   X      .    .                        .                 o                                                                     ",
"   X       ....                         .                  o                                                                    ",
"   X                                    .                   o                                                                   ",
"   X                                    .                    o                                                                  ",
"   X                                    .                    o                                                                  ",
"   X                                    .                     o                                                                 ",
"   X                                    .                      o                                                                ",
"   X                                    .                       o                                                               ",
"   X                                    .                       o                                                               ",
"   X                                    .   ........             o                      ........                                ",
"   X                                    .   .                     o                     .                                       ",
"   X                                    .   .                      o             .      .                                       ",
"   X                                    .   .                      o             .      .                                       ",
"   X                                    .   .                       o            .      .                                       ",
"   X                                    .   .....                    o           .      .....                                   ",
"   X                                    .   .                         o          .      .                                       ",
"   X                                    .   .       ..                o          .      .       ...                             ",
"   X                                    .   .      . .                 o         .      .      .   .                            ",
"   X                                    .   .     .  .                  o        .      .      .   .                            ",
"   X                                    .   .        .                   o       .      .          .                            ",
"   X                                    .   .        .                   o       .      .         .                             ",
"   X                                    .            .                    o      .               .                              ",
"   X                                    .            .                     o     .              .                               ",
"   X                                    .          .....                    o    .             .....                            ",
"   X                                 .  .  .                                 o.  .  .                                           ",
"   X                                  . . .                                    .o. .                                 X          ",
"   X                                   ...                                      ...ooooooooooooooooooooooooooo       XX         ",
" XXXXXXXXXXXXXXXXXXXXXXXXXXXXXXXXXXXXXXX.XXXXXXXXXXXXXXXXXXXXXXXXXXXXXXXXXXXXXXXX.XXXXXXXXXXXXXXXXXXXXXXXXXXXXXXXXXXXXXX        ",
"   X                                   . .                                      . .                                  XX         ",
"   X                                  .   .                                    .   .                                 X          ",
"                                     .     .                                  .     .                                           ",
"                                                                                                                                "};
