/* XPM */
static char * LPFiltre [] = {
/* width height ncolors cpp [x_hot y_hot] */
"16 16 3 1 0 0",
/* colors */
" 	s none	m none	c none",
".	s iconColor1	m black	c black",
"X	s iconColor3	m black	c red",
/* pixels */
"                ",
" .              ",
"...             ",
" . .            ",
" .              ",
" .              ",
" .XXXXX         ",
" .     X        ",
" .      X       ",
" .       X      ",
" .       X      ",
" .        X  .  ",
" .        X   . ",
"................",
" .            . ",
"             .  "};
