/* XPM */
static char * maskTools [] = {
/* width height ncolors cpp [x_hot y_hot] */
"16 16 4 1 0 0",
/* colors */
" 	s none	m none	c none",
".	s iconColor1	m black	c black",
"X	s iconGray8	m black	c #323232323232",
"o	s iconGray5	m black	c #7d7d7d7d7d7d",
/* pixels */
"                ",
"                ",
"     ...        ",
" X   .oo....    ",
"X o   .ooooo.   ",
"XX o   .ooooo.  ",
"o X o   .ooooo. ",
" o X o ...ooo.  ",
"  o X X.X .o.   ",
"   o X.X   .    ",
"    X.X o       ",
"   ..o X o      ",
"  ..X o X o     ",
" ..X   o X o    ",
"XXX     o XX    ",
"XX       oXX    "};
