/* XPM */
static char *ilvdoc[] = {
/* width height num_colors chars_per_pixel */
"    16    16        6            1",
/* colors */
". c #000000",
"# c #848484",
"a c none",
"b c #c6c6c6",
"c c #f00000",
"d c #ffffff"
/* pixels */
"a########.aaaaaa",
"a#ccccccb#.aaaaa",
"a#ccccccbdb#.aaa",
"a#ccccccbddb#.aa",
"a#ccccccb......a",
"a#cccccccccccc#.",
"a#ccc.cc...ccb#.",
"a#cc..cc.cc.cb#.",
"a#c.c.cc.cc.cb#.",
"a#ccc.cc.cc.cb#.",
"a#ccc.cc.cc.cb#.",
"a#ccc.cc...ccb#.",
"a#cccccccccccb#.",
"a#bbbbbbbbbbbb#.",
"a##############.",
"................"
};
