/* XPM */
static char * modeListe [] = {
/* width height ncolors cpp [x_hot y_hot] */
"16 16 3 1 0 0",
/* colors */
" 	s iconColor1	m black	c black",
".	s iconColor5	m black	c blue",
"X	s none	m none	c none",
/* pixels */
"                ",
" .............. ",
" .............. ",
"                ",
" XXXXXXXXXXXXXX ",
" X XX X  X   XX ",
" X XX XXXXX XXX ",
" X  X X  XX XXX ",
" XXXXXXXXXXXXXX ",
" X   X  X  XXXX ",
" X X X XXXXXXXX ",
" X   X  X  XXXX ",
" XXXXXXXXXXXXXX ",
" X X   X  X  XX ",
" X XX XX XXX XX ",
"                "};
