/* XPM */
static char * 1D_Blanc [] = {
/* width height ncolors cpp [x_hot y_hot] */
"16 16 8 1 0 0",
/* colors */
" 	s none	m none	c none",
".	c #838383838383",
"X	s iconColor1	m black	c black",
"o	c #FEFEFEFEFEFE",
"O	c #C5C5C5C5C5C5",
"+	s iconColor5	m black	c blue",
"@	s iconColor2	m white	c white",
"#	s iconColor3	m black	c red",
/* pixels */
" ........X      ",
" .ooooooO.X     ",
" .oo+ooo@o@.X   ",
" .o+++o###o@.X  ",
" .+++++@@@#@@XX ",
" .oo#@@@@@@#oO.X",
" .o#@@@@@@@+oO.X",
" .#@@@@@@@+++O.X",
" .#@@@@@@+++++.X",
" .#@@@@@@@#@oO.X",
" .o#@+@@@#o@oO.X",
" .oo+++@#@@ooO.X",
" .o+++++oooooO.X",
" .OOOOOOOOOOOO.X",
" ..............X",
"XXXXXXXXXXXXXXXX"};
