/* XPM */
static char * 1D_Rouge [] = {
/* width height ncolors cpp [x_hot y_hot] */
"16 16 6 1 0 0",
/* colors */
" 	s none	m none	c none",
".	c #838383838383",
"X	s iconColor1	m black	c black",
"o	s iconColor3	m black	c red",
"O	c #C5C5C5C5C5C5",
"+	s iconColor4	m white	c green",
/* pixels */
" ........X      ",
" .ooooooO.X     ",
" .oo+oooooo.X   ",
" .o+++oXXXoo.X  ",
" .+++++oooXooXX ",
" .ooXooooooXoO.X",
" .oXooooooo+oO.X",
" .Xooooooo+++O.X",
" .Xoooooo+++++.X",
" .XoooooooXooO.X",
" .oXo+oooXoooO.X",
" .oo+++oXooooO.X",
" .o+++++oooooO.X",
" .OOOOOOOOOOOO.X",
" ..............X",
"XXXXXXXXXXXXXXXX"};
