/* XPM */
static char * palette [] = {
/* width height ncolors cpp [x_hot y_hot] */
"16 16 6 1 0 0",
/* colors */
" 	s none	m none	c none",
".	s iconColor1	m black	c black",
"X	s iconGray6	m black	c #646464646464",
"o	s iconColor5	m black	c blue",
"O	s iconColor3	m black	c red",
"+	s iconColor6	m white	c yellow",
/* pixels */
"                ",
"              ..",
"             ...",
"            ... ",
"           ...  ",
"          ...   ",
"          ..    ",
"        X oo    ",
"    XXXXXXooX   ",
"  XXXXOOXooXXXX ",
"  XXXOOOXXX++XXX",
" XXXXOOXX++++XXX",
"  XXXXXXX+++XXXX",
"  XXXXXXXXXXXXX ",
"    XXXXXXXXX   ",
"                "};
