/* XPM */
static char * play [] = {
/* width height ncolors cpp [x_hot y_hot] */
"16 16 5 1 0 0",
/* colors */
" 	s none	m none	c none",
".	s iconGray6	m black	c #646464646464",
"X	s iconColor3	m black	c red",
"o	s iconGray3	m white	c #afafafafafaf",
"O	s iconGray5	m black	c #7d7d7d7d7d7d",
/* pixels */
"        . X     ",
"       ..  X    ",
"      .o.   X   ",
"     .oo. X  X  ",
".....ooo.  X  X ",
".OOO.ooo.   X X ",
".OOO.ooo. X X X ",
".OOO.ooo. X X X ",
".OOO.ooo. X X X ",
".OOO.ooo.   X X ",
".....ooo.  X  X ",
"     .oo. X  X  ",
"      .o.   X   ",
"       ..  X    ",
"        . X     ",
"                "};
