/* XPM */
static char * poubelle [] = {
/* width height ncolors cpp [x_hot y_hot] */
"64 64 9 1 0 0",
/* colors */
" 	s none	m none	c none",
".	s iconColor5	m black	c blue",
"X	s iconColor3	m black	c red",
"o	s iconColor1	m black	c black",
"O	s iconGray5	m black	c #7d7d7d7d7d7d",
"+	s iconGray6	m black	c #646464646464",
"@	s iconGray2	m white	c #c8c8c8c8c8c8",
"#	s iconGray4	m white	c #969696969696",
"$	s iconGray3	m white	c #afafafafafaf",
/* pixels */
" ..                                                             ",
" .....                                                          ",
"  ......                                                        ",
"     ...                                                        ",
"       ..                                                       ",
"       ..                  X                 oooo               ",
"       ..                   X               oOOOOo              ",
"      ...                    X             oOOOOOOoo            ",
"     ...            .....     X            oOOOOOOOOo           ",
"     ..          .........     X          oOOOOOOOOOo           ",
"     ..        .....     ..     X         oOOOOOOOOOOo          ",
"     ...    .....         ..     X    X   oOOOOOOOOOOo          ",
"      .........           ..      X   X   oOOOOOOOOOOo          ",
"       ......            ..        X  X   oOOOOOOOOOOOo         ",
"                        ..          X X   oOOOOOOOOOOOo         ",
"                      ...            XX   oOOOOOOOOOOOo         ",
"                     ...         XXXXXX   oOOOOOOOOOOOo         ",
"                    ...                   ooOOOOOOOOOOo         ",
"                   ...                     oOOOOOOOOOOo         ",
"                   ..   .....              oOOOOOOOOOOo         ",
"                   ...........              oOOOOOOOOo          ",
"                    .....    ...            oOOOOOOOOo          ",
"                              ...            oOOOOOOOo          ",
"                               ...            ooOOOoo           ",
"                                ...oooooooo     ooo             ",
"                             ooo+...+++++++oooo                 ",
"                           oo+++++...++++++++++ooo              ",
"                          o++++++++..+++++++++++++o             ",
"                          ooo+++++++++++++++++++ooo             ",
"                          o@@ooo++++++++++++++oo##o             ",
"                          o@@@@@oooooooooooooo####o             ",
"                          o@@@@@@@o$$$$$$$o#######o             ",
"                          o@@@@@@@o$$$$$$$o#######o             ",
"                          o@@@@@@@o$$$$$$$o#######o             ",
"                          o@@@@@@@o$$$$$$$o#######o             ",
"                          o@@@@@@@o$$$$$$$o#######o             ",
"                          o@@@@@@@o$$$$$$$o#######o             ",
"                          o@@@@@@@o$$$$$$$o#######o             ",
"                          o@@@@@@@o$$$$$$$o#######o             ",
"                          o@@@@@@@o$$$$$$$o#######o             ",
"                          o@@@@@@@o$$$$$$$o#######o             ",
"                          o@@@@@@@o$$$$$$$o#######o             ",
"                          o@@@@@@@o$$$$$$$o#######o             ",
"                          o@@@@@@@o$$$$$$$o#######o             ",
"                          o@@@@@@@o$$$$$$$o#######o             ",
"                          o@@@@@@@o$$$$$$$o#######o             ",
"                          o@@@@@@@o$$$$$$$o#######o             ",
"                          o@@@@@@@o$$$$$$$o#######o             ",
"                          o@@@@@@@o$$$$$$$o#######o             ",
"                          o@@@@@@@o$$$$$$$o#######o             ",
"                          o@@@@@@@o$$$$$$$o#######o             ",
"                          o@@@@@@@o$$$$$$$o#######o             ",
"                          o@@@@@@@o$$$$$$$o#######o             ",
"                          o@@@@@@@o$$$$$$$o######o              ",
"                          oo@@@@@@o$$$$$$$o####oo               ",
"                            oooo@@o$$$$$$$o##oo                 ",
"                                oo ooooooo oo                   ",
"                                                                ",
"                                                                ",
"                                                                ",
"                                                                ",
"                                                                ",
"                                                                ",
"                                                                "};
