/* XPM */
static char * print [] = {
/* width height ncolors cpp [x_hot y_hot] */
"16 16 6 1 0 0",
/* colors */
" 	s none	m none	c none",
".	s iconGray6	m black	c #646464646464",
"X	s iconColor2	m white	c white",
"o	s iconGray8	m black	c #323232323232",
"O	s foreground	m white	c white",
"+	s iconColor1	m black	c black",
/* pixels */
"                ",
"      ........  ",
"     .XooooooX. ",
"    .XXXXXXXXX. ",
"   .XoooooooX.  ",
"   .XXXXXXXX.   ",
"   .OooooooX.   ",
"   .OXXXXXXX.   ",
" ++++++++++++++ ",
"+              +",
"+              +",
"+  oooooooooo  +",
"+  oooooooooo  +",
"+              +",
"++             +",
" ++++++++++++++ "};
