/* XPM */
static char * resamp [] = {
/* width height ncolors cpp [x_hot y_hot] */
"16 16 4 1 0 0",
/* colors */
" 	s none	m none	c none",
".	s iconColor3	m black	c red",
"X	s iconColor5	m black	c blue",
"o	s iconColor1	m black	c black",
/* pixels */
"                ",
"                ",
"                ",
"       .        ",
"      ...   X   ",
"       .   XXX  ",
"  X    o    X   ",
" XXX   o    o   ",
"  X    o    o   ",
"  o    o    o   ",
"  o    o    o   ",
"  o    o    o   ",
"  o    o    o   ",
"  o    o    o   ",
"oooooooooooooooo",
"                "};
