/* XPM */
static char * retard [] = {
/* width height ncolors cpp [x_hot y_hot] */
"32 32 4 1 0 0",
/* colors */
" 	s iconColor5	m black	c blue",
".	s foreground	m white	c white",
"X	s iconColor3	m black	c red",
"o	s iconColor1	m black	c black",
/* pixels */
"                                ",
"                                ",
"  ........................XX..  ",
"  .......................XXX..  ",
"  ......................XXXX..  ",
"  .....................XX.XX..  ",
"  ........................XX..  ",
"  .................XXXX...XX..  ",
"  .................XXXX...XX..  ",
"  ......................XXXXX.  ",
"  ......................XXXXX.  ",
"  ............................  ",
"  ....oooooooooooooooo........  ",
"  ....oooooooooooooooo........  ",
"  ....ooo.........ooo.........  ",
"  ....oo.........ooo..........  ",
"  ..............ooo...........  ",
"  .............ooo............  ",
"  ............ooo.............  ",
"  ...........ooo..............  ",
"  ..........ooo...............  ",
"  .........ooo................  ",
"  ........ooo........oo.......  ",
"  .......ooo........ooo.......  ",
"  ......ooo........oooo.......  ",
"  .....oooo.......ooooo.......  ",
"  ....ooooooooooooooooo.......  ",
"  ....ooooooooooooooooo.......  ",
"  ............................  ",
"  ............................  ",
"                                ",
"                                "};
