/* XPM */
static char * sauver [] = {
/* width height ncolors cpp [x_hot y_hot] */
"16 16 4 1 0 0",
/* colors */
" 	s iconColor1	m black	c black",
".	s iconGray4	m white	c #969696969696",
"X	s iconGray1	m white	c #e1e1e1e1e1e1",
"o	s none	m none	c none",
/* pixels */
"                ",
" ... XXXXXX ... ",
" ... XXXXXX ... ",
" ... XXXXXX ... ",
" ... XXXXXX ... ",
" ... XXXXXX ... ",
" ...        ... ",
" .............. ",
" .............. ",
" .............. ",
" .............. ",
" ...        ... ",
" ...     XX ... ",
" ...     XX ... ",
" ...     XX ... ",
"o              o"};
