/* XPM */
static char * scaleMoins [] = {
/* width height ncolors cpp [x_hot y_hot] */
"16 16 3 1 0 0",
/* colors */
" 	s none	m none	c none",
".	s iconColor5	m black	c blue",
"X	s iconColor3	m black	c red",
/* pixels */
"                ",
"                ",
" .X          X. ",
" ..X        X.. ",
" ...X      X... ",
" ....X    X.... ",
" .....X  X..... ",
" ......  ...... ",
" ......  ...... ",
" .....X  X..... ",
" ....X    X.... ",
" ...X      X... ",
" ..X        X.. ",
" .X          X. ",
"                ",
"                "};
