/* XPM */
static char * scalePlus [] = {
/* width height ncolors cpp [x_hot y_hot] */
"16 16 3 1 0 0",
/* colors */
" 	s none	m none	c none",
".	s iconColor3	m black	c red",
"X	s iconColor5	m black	c blue",
/* pixels */
"                ",
"                ",
"      .  .      ",
"     ..  ..     ",
"    .X.  .X.    ",
"   .XX.  .XX.   ",
"  .XXX.  .XXX.  ",
" .XXXX.  .XXXX. ",
" .XXXX.  .XXXX. ",
"  .XXX.  .XXX.  ",
"   .XX.  .XX.   ",
"    .X.  .X.    ",
"     ..  ..     ",
"      .  .      ",
"                ",
"                "};
