/* XPM */
static char * sigma1 [] = {
/* width height ncolors cpp [x_hot y_hot] */
"32 32 4 1 0 0",
/* colors */
" 	s iconGray2	m white	c #c8c8c8c8c8c8",
".	s iconColor5	m black	c blue",
"X	s iconGray3	m white	c #afafafafafaf",
"o	s iconColor8	m black	c magenta",
/* pixels */
"                                ",
"                                ",
"            ........            ",
"         ...XXXXXXXX...         ",
"        ..XXXXXXXXXXXX..        ",
"      ..XXXXXXXXXXXXXXXX..      ",
"     .XXXXXXXXXXXXXXXXXXX..     ",
"    ..XXoooooooooooooooXXX..    ",
"    .XXXoooooooooooooooXXXX.    ",
"   .XXXXXooXXXXXXXXXoooXXXXX.   ",
"  ..XXXXXXooXXXXXXXXXooXXXXX..  ",
"  .XXXXXXXXooXXXXXXXXXoXXXXXX.  ",
"  .XXXXXXXXXooXXXXXXXXXXXXXXX.  ",
" .XXXXXXXXXXXooXXXXXXXXXXXXXXX. ",
" .XXXXXXXXXXXXooXXXXXXXXXXXXXX. ",
" .XXXXXXXXXXXXXooXXXXXXXXXXXXX. ",
" .XXXXXXXXXXXXXXooXXXXXXXXXXXX. ",
" .XXXXXXXXXXXXXoooXXXXXXXXXXXX. ",
" .XXXXXXXXXXXXoooXXXXXXXXXXXXX. ",
" .XXXXXXXXXXXoooXXXXXXXXXXXXXX. ",
" .XXXXXXXXXXoooXXXXXXXXXXXXXXX. ",
"  .XXXXXXXXoooXXXXXXXXXXXXXXX.  ",
"  .XXXXXXXoooXXXXXXXXXooXXXXX.  ",
"  ..XXXXooooXXXXXXXXXoooXXXX..  ",
"   .XXXoooooooooooooooooXXXX.   ",
"    .XXoooooooooooooooooXXX.    ",
"    ..XXXXXXXXXXXXXXXXXXXX..    ",
"     ..XXXXXXXXXXXXXXXXXX..     ",
"      ..XXXXXXXXXXXXXXXX..      ",
"        ..XXXXXXXXXXXX..        ",
"         ...XXXXXXXX...         ",
"            ........            "};
