/* XPM */
static char * spectreAR [] = {
/* width height ncolors cpp [x_hot y_hot] */
"16 16 5 1 0 0",
/* colors */
" 	s none	m none	c none",
".	s iconColor6	m white	c yellow",
"X	s iconColor3	m black	c red",
"o	s iconColor5	m black	c blue",
"O	s iconColor1	m black	c black",
/* pixels */
"   ..Xo         ",
"  ..Xo          ",
"  ..Xo          ",
" ..Xo           ",
" ..Xo           ",
"..Xo  OO        ",
"..Xo O  O       ",
".Xo  O  O       ",
".Xo OOOOOO O O  ",
"Xo  O    O OO O ",
"Xo  O    O O    ",
"o   O    O O    ",
"o               ",
"                ",
"                ",
"                "};
