/* XPM */
static char * stats [] = {
/* width height ncolors cpp [x_hot y_hot] */
"16 16 2 1 0 0",
/* colors */
" 	s iconColor5	m black	c blue",
".	s iconColor2	m white	c white",
/* pixels */
"                ",
"                ",
"                ",
"       .........",
"     ...........",
"   ...  .       ",
"  ...    .      ",
"  .       .     ",
" ..       .     ",
" .       .      ",
" .       .      ",
" .      ..      ",
" .      .       ",
"  .    ..       ",
"   ....         ",
"                "};
