/* XPM */
static char * T1DColor [] = {
/* width height ncolors cpp [x_hot y_hot] */
"16 16 7 1 0 0",
/* colors */
" 	s none	m none	c none",
".	s iconGray3	m white	c #afafafafafaf",
"X	s iconColor6	m white	c yellow",
"o	s iconColor8	m black	c magenta",
"O	s iconColor7	m white	c cyan",
"+	s iconColor5	m black	c blue",
"@	s iconColor2	m white	c white",
/* pixels */
"     .......    ",
"   ..XXXXXXX..  ",
"  .XXXXXXXXXXX. ",
" .XXXXXXXXXXXXX.",
" .XXXXXXXXXXXXX.",
".XXXXooooooooXXX",
".XXooooooooooooX",
"..oooooooooooooo",
".ooooOOOOOOOoooo",
"oooOOOOOOOOOOOoo",
"..OO..........O.",
". ..          ..",
"++++++++++++++++",
"@@@@@@@@@@@@@@@@",
"++++++++++++++++",
"@@@@@@@@@@@@@@@@"};
