/* XPM */
static char * term [] = {
/* width height ncolors cpp [x_hot y_hot] */
"32 32 5 1 0 0",
/* colors */
" 	s iconGray2	m white	c #c8c8c8c8c8c8",
".	s iconColor5	m black	c blue",
"X	s iconGray1	m white	c #e1e1e1e1e1e1",
"o	s iconGray5	m black	c #7d7d7d7d7d7d",
"O	s iconGray4	m white	c #969696969696",
/* pixels */
"                                ",
"                                ",
"   ......................       ",
"  ........................      ",
"  ..XXXXXXXXXXXXXXXXXXXX..      ",
"  ..XXXXXXXXXXXXXXXXXXXX..      ",
"  ..XoooooXXXXXXXXXXXXXX..      ",
"  ..XXXXXXXXXXXXXXXXXXXX..      ",
"  ..XoooXooooXXXXXXXXXXX..      ",
"  ..XXXXXXXXXXXXXXXXXXXX..      ",
"  ..XoooXXoooooXXXXXXXXX..      ",
"  ..XXXXXXXXXXXXXXXXXXXX..      ",
"  ..XoooXXoXXoooooXXXXXX..      ",
"  ..XXXXXXXXXXXXXXXXXXXX..      ",
"  ..XoXooooooooooXXXXXXX..      ",
"  ..XXXXXXXXXXXXXXXXXXXX..      ",
"  ..XXXXXXXXXXXXXXXXXXXX..      ",
"  ........................      ",
"   ......................       ",
"                                ",
"  .......................       ",
"  .OOOOOOOOOOOOOOOOOOOOOO.      ",
"   .OOOOOOOOOOOOOOOOOOOOO.      ",
"   .OO.O..O.O.OO.O.OO.O.OO.     ",
"   .OOOOOOOOOOOOOOOOOOOOOO.     ",
"   .OO.O.....OO...O.O.O.OOO.    ",
"    .OOOOOOOOOOOOOOOOOOOOOO.    ",
"    .........................   ",
"                                ",
"                                ",
"                                ",
"                                "};
