/* XPM */
static char * TListBlanc [] = {
/* width height ncolors cpp [x_hot y_hot] */
"16 16 6 1 0 0",
/* colors */
" 	s none	m none	c none",
".	c #838383838383",
"X	s iconColor1	m black	c black",
"o	c #FEFEFEFEFEFE",
"O	c #C5C5C5C5C5C5",
"+	s iconColor2	m white	c white",
/* pixels */
" ........X      ",
" .ooooooO.X     ",
" .oo++o++o+.X   ",
" .oXXXXXXX++.X  ",
" .+XX+++XX+++XX ",
" .oX+++++X++oO.X",
" .+XX+++XX++oO.X",
" .+XXXXXX++++O.X",
" .+XX+++++++++.X",
" .+XX+++++++oO.X",
" .+XX+++++o+oO.X",
" .oXX++++++ooO.X",
" .o+++++oooooO.X",
" .OOOOO+OOOOOO.X",
" ..............X",
"XXXXXXXXXXXXXXXX"};
