/* XPM */
static char * undoZoom [] = {
/* width height ncolors cpp [x_hot y_hot] */
"16 16 4 1 0 0",
/* colors */
" 	s foreground	m white	c white",
".	s iconColor2	m white	c white",
"X	s iconColor1	m black	c black",
"o	s iconColor3	m black	c red",
/* pixels */
"  ....XXX.......",
"   ..X...X......",
".   X..X..X.....",
"..  X...X.X.....",
"....X...X.X.....",
".....X...X......",
"....X.XXX.......",
"...X.....ooo....",
"..X.... ooooo...",
".X.....oo...oo..",
"......ooo....o..",
"......oo.... o..",
"......oo...ooooo",
"...........ooooo",
"............ooo ",
".............o. "};
