/* XPM */
static char * unZoom [] = {
/* width height ncolors cpp [x_hot y_hot] */
"16 16 2 1 0 0",
/* colors */
" 	s iconColor2	m white	c white",
".	s iconColor3	m black	c red",
/* pixels */
"                ",
"                ",
"                ",
"  ...       ... ",
" ....      .... ",
".. ..     .. .. ",
"   ..        .. ",
"   ..  ...   .. ",
"   ..  ...   .. ",
"   ..  ...   .. ",
"   ..        .. ",
"   ..  ...   .. ",
" ..... ... .....",
" ..... ... .....",
"                ",
"                "};
