/* XPM */
static char * visualiser [] = {
/* width height ncolors cpp [x_hot y_hot] */
"64 64 5 1 0 0",
/* colors */
" 	s none	m none	c none",
".	s iconColor1	m black	c black",
"X	s iconColor3	m black	c red",
"o	s iconColor2	m white	c white",
"O	s iconColor5	m black	c blue",
/* pixels */
"                                                                ",
"                                                                ",
"                                              ..                ",
"                                             .X..               ",
"                                            .XXX..              ",
"                                           .XXX.X..             ",
"                                          .XXX.XXX.             ",
"                                         .XXX.XXX.              ",
"                                        .XXX.XXX.               ",
"    .................................. .XXX.XXX.o...............",
"    .ooooooooooooooooooooooooooooooooo.XXX.XXX.oooooooooooooooo.",
"    .oooooooooooooooooooooooooooooooo.XXX.XXX.ooooooooooooooooo.",
"    .ooooooooooooooooooooooooooooooo.XXX.XXX.oooooooooooooooooo.",
"    .oooooooooooooooooooooooooooooo.XXX.XXX.ooooooooooooooooooo.",
"    .ooooooooooooooooooooooooooooo.XXX.XXX.oooooooooooooooooooo.",
"    .oooooooooooooooooooooooooooo.XXX.XXX.ooooooooooooooooooooo.",
"    .ooooooooooooooooooooooooooo.XXX.XXX.oooooooooooooooooooooo.",
"    .ooooooooOOOooooooooooooooo...X.XXX.ooooooooooooooooooooooo.",
"    .oooooooOOoOOooooooooooooooO...XXX.oooooooooooooooooooooooo.",
"    .ooooooOOoooOOoooooooooooooOO...X.ooooooooooooooooooooooooo.",
"    .oooooOOoooooOoooooooooooooOOO...ooooOOOooooooooooooooooooo.",
"    .ooooOOooooooOOooooooooooooOOOO.oooOOooOOoooooooooooooooooo.",
"    .oooOOooooooooOoooooooooooooooooooOOooooOOooooooooooooooooo.",
"    .ooOOoooooooooOOoooooooOOOoooooooOOooooooOOooOOoooooooooooo.",
"    .ooooooooooooooOooooooOOoOOoooooOOoooooooooOOOoOooOOOoooooo.",
"    .ooooooooooooooOooooooOoooOOOOOOOoooooooooooooooOOOoooooooo.",
"    .ooooooooooooooOooooooOoooooooooooooooooooooooooooooooooooo.",
"    .oooooooooooooooOooooOooooooooooooooooooooooooooooooooooooo.",
"    .oooooooooooooooOOooOOooooooooooooooooooooooooooooooooooooo.",
"    .ooooooooooooooooOOOOoooooooooooooooooooooooooooooooooooooo.",
"    .oooooooooooooooooooooooooooooooooooooooooooooooooooooooooo.",
"    .oooooooooooooooooooooooooooooooooooooooooooooooooooooooooo.",
"    .oooooooooooooooooooooooooooooooooooooooooooooooooooooooooo.",
"    .oooooooooooooooooooooooooooooooooooooooooooooooooooooooooo.",
"    .ooooooooOOOooooooooooooooooooooooooooooooooooooooooooooooo.",
"    .oooooooOOoOOoooooooooooooooooooooooooooooooooooooooooooooo.",
"    .ooooooOOoooOOooooooooooooooooooooooooooooooooooooooooooooo.",
"    .oooooOOoooooOoooooooooooooooooooooooOOOooooooooooooooooooo.",
"    .ooooOOooooooOOooooooooooooooooooooOOooOOoooooooooooooooooo.",
"    .oooOOooooooooOoooooooooooooooooooOOooooOOooooooooooooooooo.",
"    .ooOOoooooooooOOoooooooOOOoooooooOOooooooOOooOOoooooooooooo.",
"    .ooooooooooooooOooooooOOoOOoooooOOoooooooooOOOoOooOOOoooooo.",
"    .ooooooooooooooOooooooOoooOOOOOOOoooooooooooooooOOOoooooooo.",
"    .ooooooooooooooOooooooOoooooooooooooooooooooooooooooooooooo.",
"    .oooooooooooooooOooooOooooooooooooooooooooooooooooooooooooo.",
"    .oooooooooooooooOOooOOooooooooooooooooooooooooooooooooooooo.",
"    .ooooooooooooooooOOOOoooooooooooooooooooooooooooooooooooooo.",
"    ............................................................",
"                                                                ",
"                                                                ",
"                                                                ",
"                                                                ",
"                                                                ",
"   .     . .   ...  .    .    ...    .     .   ...  ..... ....  ",
"   .     . .  .   . .    .    . .    .     .  .   . .     .   . ",
"   ..   .. .  .     .    .   .   .   .     .  .     .     .   . ",
"    .   .  .   ...  .    .   .   .   .     .   ...  ...   ....  ",
"    .   .  .      . .    .  .     .  .     .      . .     . .   ",
"    .. ..  .      . .    .  . ... .  .     .      . .     .  .  ",
"     . .   .  .   . .    . .       . .     .  .   . .     .  .. ",
"     ...   .   ...   ....  .       . ....  .   ...  ..... .   . ",
"                                                                ",
"                                                                ",
"                                                                "};
